# xmcd
#
# Track frame offsets:
#	150
#	24801
#	45165
#	63765
#	82120
#	98392
#	118039
#	137387
#	155171
#	182164
#	199370
#	217827
#	238177
#
# Disc length: 3487 seconds
# Revision: 0
# Processed by: cddbd v1.5.2PL0 Copyright (c) Steve Scherf et al.
# Submitted via: dBpowerAMP V12.0
#
DISCID=a20d9d0d
DTITLE=Savoy Brown - The Devil To Pay
DYEAR=2015
DGENRE=Blues
TTITLE0=Ain't Got Nobody
TTITLE1=Bad Weather Brewing
TTITLE2=Grew Up In The Blues
TTITLE3=When Love Goes Wrong
TTITLE4=Oh Rosa
TTITLE5=The Devil To Pay
TTITLE6=Stop Throwing Your Loving Around
TTITLE7=Snakin'
TTITLE8=Got An Awful Feeling
TTITLE9=I've Been Drinking
TTITLE10=Watch My Woman
TTITLE11=Whiskey Headed Baby
TTITLE12=Evil Eye
EXTD=
EXTT0=
EXTT1=
EXTT2=
EXTT3=
EXTT4=
EXTT5=
EXTT6=
EXTT7=
EXTT8=
EXTT9=
EXTT10=
EXTT11=
EXTT12=
PLAYORDER=
